<mxfile host="app.diagrams.net" modified="2023-04-08T05:31:18.495Z" agent="Mozilla/5.0 (Macintosh; Intel Mac OS X 10.15; rv:109.0) Gecko/20100101 Firefox/111.0" version="21.1.5" etag="xQD_NbuHolM_4AUyXhIY" type="github">
  <diagram name="第 1 页" id="s-dX0Y2uISyYPD3RqodX">
    <mxGraphModel>
      <root>
        <mxCell id="0" />
        <mxCell id="1" parent="0" />
      </root>
    </mxGraphModel>
  </diagram>
</mxfile>
